HIERARCHY
ROOT joint_0
{
	OFFSET 0.000000 0.000000 0.000000
	CHANNELS 6 Xposition Yposition Zposition Zrotation Yrotation Xrotation 
	JOINT joint_1
	{
		OFFSET 1.363060 -1.794630 0.839290
		CHANNELS 3 Zrotation Yrotation Xrotation
		JOINT joint_2
		{
			OFFSET 2.448110 -6.726130 0.000000
			CHANNELS 3 Zrotation Yrotation Xrotation
			JOINT joint_3
			{
				OFFSET 2.562200 -7.039590 0.000000
				CHANNELS 3 Zrotation Yrotation Xrotation
				JOINT joint_4
				{
					OFFSET 0.157640 -0.433110 2.322550
					CHANNELS 3 Zrotation Yrotation Xrotation
					End Site
					{
						OFFSET 0.000000 0.000000 0.000000
					}
				}
			}
		}
	}
	JOINT joint_5
	{
		OFFSET -1.305520 -1.794630 0.839290
		CHANNELS 3 Zrotation Yrotation Xrotation
		JOINT joint_6
		{
			OFFSET -2.542530 -6.985550 0.000000
			CHANNELS 3 Zrotation Yrotation Xrotation
			JOINT joint_7
			{
				OFFSET -2.568260 -7.056230 0.000000
				CHANNELS 3 Zrotation Yrotation Xrotation
				JOINT joint_8
				{
					OFFSET -0.164730 -0.452590 2.363150
					CHANNELS 3 Zrotation Yrotation Xrotation
					End Site
					{
						OFFSET 0.000000 0.000000 0.000000
					}
				}
			}
		}
	}
	JOINT joint_9
	{
		OFFSET 0.028270 2.035590 -0.193380
		CHANNELS 3 Zrotation Yrotation Xrotation
		JOINT joint_10
		{
			OFFSET 0.056720 2.048850 -0.042750
			CHANNELS 3 Zrotation Yrotation Xrotation
			JOINT joint_11
			{
				OFFSET -0.054170 1.746240 0.172020
				CHANNELS 3 Zrotation Yrotation Xrotation
				JOINT joint_12
				{
					OFFSET 0.104070 1.761360 -0.123970
					CHANNELS 3 Zrotation Yrotation Xrotation
					End Site
					{
						OFFSET 0.000000 0.000000 0.000000
					}
				}
			}
			JOINT joint_13
			{
				OFFSET 3.362410 1.200890 -0.311210
				CHANNELS 3 Zrotation Yrotation Xrotation
				JOINT joint_14
				{
					OFFSET 4.983000 -0.000000 -0.000000
					CHANNELS 3 Zrotation Yrotation Xrotation
					JOINT joint_15
					{
						OFFSET 3.483560 -0.000000 -0.000000
						CHANNELS 3 Zrotation Yrotation Xrotation
						JOINT joint_16
						{
							OFFSET 0.000000 0.000000 0.000000
							CHANNELS 3 Zrotation Yrotation Xrotation
							End Site
							{
								OFFSET 0.000000 0.000000 0.000000
							}
						}
					}
				}
			}
			JOINT joint_17
			{
				OFFSET -3.136600 1.374050 -0.404650
				CHANNELS 3 Zrotation Yrotation Xrotation
				JOINT joint_18
				{
					OFFSET -5.241900 -0.000000 -0.000000
					CHANNELS 3 Zrotation Yrotation Xrotation
					JOINT joint_19
					{
						OFFSET -3.444170 -0.000000 -0.000000
						CHANNELS 3 Zrotation Yrotation Xrotation
						JOINT joint_20
						{
							OFFSET 0.000000 0.000000 0.000000
							CHANNELS 3 Zrotation Yrotation Xrotation
							End Site
							{
								OFFSET 0.000000 0.000000 0.000000
							}
						}
					}
				}
			}
		}
	}
}
MOTION
Frames: 10
Frame Time: 0.031667
-9.504039 13.213994 1.398569 -12.802456 78.930977 -3.364663 2.419094 6.137888 -46.855319 -9.306967 15.828533 32.697049 -6.771541 4.596111 1.501833 -7.707478 17.428171 -0.352195 -7.796235 -19.017512 -17.381399 -4.341071 -27.832448 85.653056 -4.516989 0.064916 2.386618 -9.700782 -25.857002 -34.619541 8.789646 -6.088288 -13.271398 -7.503663 7.698453 -11.077580 -1.969395 -2.341102 10.061691 -4.391984 -2.299197 -22.754775 -82.403825 -80.669740 13.626878 23.477847 -45.137729 -9.481881 0.341159 1.190150 6.025524 3.395912 -5.155870 -4.239864 67.320886 74.480607 32.514735 -26.961743 19.727084 -27.176765 -14.112740 -15.020727 -4.269796 -8.601271 5.075724 -0.484103 
-9.044865 13.234505 1.380784 -15.252708 78.662460 -5.019760 2.677920 9.820983 -60.501923 -17.606299 23.742654 37.287647 0.683116 11.759015 10.615489 -2.944020 16.131291 -0.858997 -5.583445 -17.609022 -26.944156 -7.004395 -16.800990 75.762605 7.494384 8.069607 -3.811110 -17.232219 -23.686946 -30.216802 2.829434 -3.759411 0.211109 -11.197111 -6.126323 -1.983968 4.940091 7.260325 19.187020 -2.992230 -2.462904 -24.602919 -79.747290 -78.054364 12.064284 14.800908 -30.810055 -16.822340 9.334870 4.255863 -7.910426 -9.328059 6.902511 -1.875141 76.986606 78.607079 37.912096 -27.682384 21.344233 -36.597036 -6.503603 -9.781160 2.861763 -8.819719 0.175494 -5.809052 
-8.582102 13.253814 1.375227 -16.009581 78.725639 -5.274573 6.043021 5.259597 -49.660312 -9.610023 28.725774 38.980581 -11.605152 9.086096 5.046106 3.129865 3.009429 1.279451 -5.311589 -14.493078 -10.001673 6.620476 -17.329070 76.446926 7.760816 -8.130345 2.888749 -12.369427 -21.887213 -23.899236 -1.589334 -12.937440 1.399377 -8.725666 -8.240622 -5.692210 8.644810 1.382591 7.627122 12.997385 0.077287 -40.288824 -85.763099 -75.599153 20.882409 26.745968 -24.820875 -12.444343 -0.791670 8.174262 6.680960 -3.228860 5.976240 -2.306221 85.253084 62.861291 45.665577 -27.245854 14.280551 -40.976413 -15.098296 3.785316 2.545855 -1.671190 9.765027 -1.181075 
-8.108243 13.300405 1.390545 -14.743326 79.047958 -3.570675 -0.276307 13.479299 -61.408615 -23.890790 21.141133 56.186761 2.079907 -1.367208 -0.609925 3.600746 14.934442 -7.646337 -9.658247 -10.652088 -25.804297 4.247582 -23.058517 87.332327 9.722607 0.710241 -0.442344 -7.461428 -27.740050 -30.043418 1.804676 -7.943864 -13.472928 -6.338996 0.739097 -15.251549 -2.769012 5.626207 2.410672 12.859394 3.690822 -24.354986 -80.646909 -76.258277 31.505596 12.774711 -26.216665 -7.125647 14.290966 -5.591127 2.956071 8.644191 -5.383073 -5.584740 86.386963 60.802392 41.176649 -22.500942 24.660763 -28.981759 -11.648176 -10.590088 1.496524 -6.889587 7.585746 7.391778 
-7.625435 13.354099 1.398971 -12.545284 79.557106 -1.045868 -10.000177 19.916832 -45.282162 -17.353400 12.546453 62.372577 6.456582 3.856466 0.800655 0.700510 17.928882 0.675526 -1.812779 -21.493979 -6.897048 -10.126218 -14.428273 81.742889 3.004079 -4.764183 -3.269952 -7.304330 -23.148461 -29.878209 -4.530022 -1.234407 -5.168708 -7.692533 -6.604075 1.084684 -7.456532 -2.018098 3.225531 4.196425 7.158582 -21.868358 -92.707835 -59.681922 33.772702 26.062683 -28.494264 -11.457089 11.772607 -0.851997 8.187653 3.240153 3.705533 4.814635 70.657338 65.376222 36.218216 -21.821448 24.836501 -39.381347 -23.692420 -8.233358 9.288797 8.787134 -6.795259 -4.291028 
-7.136471 13.432327 1.396847 -12.834898 80.075310 -0.522212 -4.769723 10.146756 -59.400772 -9.650983 11.235449 60.386509 6.725134 2.524637 6.833513 8.997533 19.163411 -12.443228 -4.724301 -5.873815 -25.746768 -0.724967 -8.216703 81.044791 5.317843 -4.333875 1.212759 -6.738132 -22.710869 -25.737399 3.313307 3.625822 -0.015960 -8.830572 1.807382 -9.928950 6.876979 2.730828 13.710387 10.178978 -1.644661 -30.530703 -97.604394 -72.739133 45.243624 20.503023 -34.726354 -21.090790 7.874855 -6.941656 -3.004669 -1.439575 9.301932 5.150932 77.717067 61.418167 42.039085 -25.327911 13.920538 -42.409935 -7.577375 -10.428057 -2.149121 5.743693 -1.997503 -8.962603 
-6.670526 13.501952 1.377144 -15.472880 80.590347 -2.654320 -6.198691 21.474369 -63.153171 -5.500435 14.060303 64.349084 -8.858458 2.121505 -0.547597 11.036342 10.370208 -0.429546 -8.287464 -7.138571 -22.000928 -1.006897 -19.820584 92.715764 10.123858 -4.839356 7.126331 10.969147 -27.242505 -21.727176 6.425584 -8.187581 -1.481271 -2.157950 4.829498 2.326308 -3.799850 0.668482 17.838391 2.604169 11.280882 -22.506007 -97.081262 -76.282706 47.534669 8.338042 -28.892954 -12.107634 8.536875 -9.047648 -0.414155 -4.882408 1.621947 7.518200 80.864550 66.132771 39.445322 -26.036354 21.726799 -39.002442 -23.983874 -10.991478 8.107806 -1.788330 -5.822860 -1.720418 
-6.211817 13.555721 1.369746 -18.887506 81.359276 -5.776923 0.556233 6.863935 -61.382528 -21.536370 31.205957 57.078230 -11.504602 5.733024 0.821338 -4.116148 7.945432 -6.347815 -3.133454 -17.959973 -19.501645 -4.682350 -16.700434 85.984095 10.949629 -5.762791 4.261798 4.442978 -30.293168 -16.692028 7.137819 -7.617477 0.854038 7.048973 5.619864 -4.147255 -0.353025 8.635593 17.836714 4.003309 -1.707059 -16.351243 -87.837628 -57.989299 37.644805 10.863856 -23.277552 -9.461558 4.728866 -4.985836 -8.951372 8.134223 -3.322619 -3.741213 79.345050 65.587628 43.362174 -27.669680 22.733987 -45.570801 -18.525408 -9.234150 -6.821947 3.149869 4.051104 6.648466 
-5.754084 13.606577 1.388607 -22.488663 82.385277 -9.056768 -8.666321 16.788272 -60.354209 -19.747671 24.253578 69.417318 -1.154877 -2.070185 4.681581 18.490589 2.354316 -16.482034 1.078085 -12.014078 -19.585599 10.885620 -11.056516 81.308416 -5.400231 1.980230 -3.729593 15.717131 -33.883445 -17.762147 -0.660295 7.242156 -7.892621 -7.957252 3.716091 -12.771051 -2.193886 4.378414 2.625153 5.268390 3.471601 -35.741377 -92.806923 -54.340014 49.013829 17.559268 -18.857432 -13.006473 3.258956 4.557074 6.732206 5.865517 2.886783 -3.597674 72.831515 52.745685 42.139955 -25.082415 7.915547 -45.157834 -26.480685 -6.033697 9.864740 7.415113 -4.289939 4.909480 
-5.301321 13.663393 1.430833 -25.437986 83.286415 -11.655134 -4.202995 2.296455 -54.732027 -4.353131 19.987734 57.065013 -3.850011 -2.189243 10.293631 21.111515 9.104303 -4.586372 2.865564 -7.016919 -15.354872 18.594313 -14.947360 100.236907 7.053516 1.679212 -6.503667 28.200064 -34.518417 -8.159648 -0.296510 8.083526 -4.331134 4.742252 -4.197642 -4.117495 -4.623295 7.414559 1.963994 4.787781 12.790019 -25.935228 -89.098412 -53.535430 51.673803 8.134932 -27.590122 -9.738415 9.896537 -1.140951 -2.679498 -3.037494 8.954890 -2.237223 90.181040 52.316183 55.462874 -11.074542 8.267609 -50.056039 -24.941486 -14.180056 3.339113 -2.018862 -2.105767 0.828189 
